<svg id="visual" viewBox="0 0 900 300" width="900" height="300" xmlns="http://www.w3.org/2000/svg" xmlns:xlink="http://www.w3.org/1999/xlink" version="1.1"><rect x="0" y="0" width="900" height="300" fill="#ff9300"></rect><path d="M0 84L21.5 81.8C43 79.7 86 75.3 128.8 69.5C171.7 63.7 214.3 56.3 257.2 48.2C300 40 343 31 385.8 29.2C428.7 27.3 471.3 32.7 514.2 50.8C557 69 600 100 642.8 106.5C685.7 113 728.3 95 771.2 78.3C814 61.7 857 46.3 878.5 38.7L900 31L900 301L878.5 301C857 301 814 301 771.2 301C728.3 301 685.7 301 642.8 301C600 301 557 301 514.2 301C471.3 301 428.7 301 385.8 301C343 301 300 301 257.2 301C214.3 301 171.7 301 128.8 301C86 301 43 301 21.5 301L0 301Z" fill="#d84901"></path><path d="M0 113L21.5 112C43 111 86 109 128.8 103C171.7 97 214.3 87 257.2 94.8C300 102.7 343 128.3 385.8 135.7C428.7 143 471.3 132 514.2 128C557 124 600 127 642.8 120.2C685.7 113.3 728.3 96.7 771.2 90.5C814 84.3 857 88.7 878.5 90.8L900 93L900 301L878.5 301C857 301 814 301 771.2 301C728.3 301 685.7 301 642.8 301C600 301 557 301 514.2 301C471.3 301 428.7 301 385.8 301C343 301 300 301 257.2 301C214.3 301 171.7 301 128.8 301C86 301 43 301 21.5 301L0 301Z" fill="#be224e"></path><path d="M0 178L21.5 171.2C43 164.3 86 150.7 128.8 145.5C171.7 140.3 214.3 143.7 257.2 152.5C300 161.3 343 175.7 385.8 172.7C428.7 169.7 471.3 149.3 514.2 150.5C557 151.7 600 174.3 642.8 183C685.7 191.7 728.3 186.3 771.2 177.7C814 169 857 157 878.5 151L900 145L900 301L878.5 301C857 301 814 301 771.2 301C728.3 301 685.7 301 642.8 301C600 301 557 301 514.2 301C471.3 301 428.7 301 385.8 301C343 301 300 301 257.2 301C214.3 301 171.7 301 128.8 301C86 301 43 301 21.5 301L0 301Z" fill="#802f68"></path><path d="M0 184L21.5 183.5C43 183 86 182 128.8 185C171.7 188 214.3 195 257.2 203C300 211 343 220 385.8 215.2C428.7 210.3 471.3 191.7 514.2 179.2C557 166.7 600 160.3 642.8 160.2C685.7 160 728.3 166 771.2 180.2C814 194.3 857 216.7 878.5 227.8L900 239L900 301L878.5 301C857 301 814 301 771.2 301C728.3 301 685.7 301 642.8 301C600 301 557 301 514.2 301C471.3 301 428.7 301 385.8 301C343 301 300 301 257.2 301C214.3 301 171.7 301 128.8 301C86 301 43 301 21.5 301L0 301Z" fill="#3e335a"></path><path d="M0 298L21.5 291.2C43 284.3 86 270.7 128.8 258.5C171.7 246.3 214.3 235.7 257.2 230.5C300 225.3 343 225.7 385.8 230.8C428.7 236 471.3 246 514.2 256.8C557 267.7 600 279.3 642.8 278.3C685.7 277.3 728.3 263.7 771.2 252.3C814 241 857 232 878.5 227.5L900 223L900 301L878.5 301C857 301 814 301 771.2 301C728.3 301 685.7 301 642.8 301C600 301 557 301 514.2 301C471.3 301 428.7 301 385.8 301C343 301 300 301 257.2 301C214.3 301 171.7 301 128.8 301C86 301 43 301 21.5 301L0 301Z" fill="#202731"></path></svg>