<svg id="visual" viewBox="0 0 900 300" width="900" height="300" xmlns="http://www.w3.org/2000/svg" xmlns:xlink="http://www.w3.org/1999/xlink" version="1.1"><rect x="0" y="0" width="900" height="300" fill="#b700e0"></rect><path d="M0 30L21.5 34.5C43 39 86 48 128.8 57.3C171.7 66.7 214.3 76.3 257.2 83.2C300 90 343 94 385.8 90.8C428.7 87.7 471.3 77.3 514.2 81.8C557 86.3 600 105.7 642.8 106.7C685.7 107.7 728.3 90.3 771.2 74.8C814 59.3 857 45.7 878.5 38.8L900 32L900 301L878.5 301C857 301 814 301 771.2 301C728.3 301 685.7 301 642.8 301C600 301 557 301 514.2 301C471.3 301 428.7 301 385.8 301C343 301 300 301 257.2 301C214.3 301 171.7 301 128.8 301C86 301 43 301 21.5 301L0 301Z" fill="#8c029f"></path><path d="M0 94L21.5 105.8C43 117.7 86 141.3 128.8 140.3C171.7 139.3 214.3 113.7 257.2 111.7C300 109.7 343 131.3 385.8 138.5C428.7 145.7 471.3 138.3 514.2 133C557 127.7 600 124.3 642.8 114.2C685.7 104 728.3 87 771.2 83.8C814 80.7 857 91.3 878.5 96.7L900 102L900 301L878.5 301C857 301 814 301 771.2 301C728.3 301 685.7 301 642.8 301C600 301 557 301 514.2 301C471.3 301 428.7 301 385.8 301C343 301 300 301 257.2 301C214.3 301 171.7 301 128.8 301C86 301 43 301 21.5 301L0 301Z" fill="#cf0082"></path><path d="M0 158L21.5 163.5C43 169 86 180 128.8 187.7C171.7 195.3 214.3 199.7 257.2 190.5C300 181.3 343 158.7 385.8 157.7C428.7 156.7 471.3 177.3 514.2 176.5C557 175.7 600 153.3 642.8 143C685.7 132.7 728.3 134.3 771.2 130.8C814 127.3 857 118.7 878.5 114.3L900 110L900 301L878.5 301C857 301 814 301 771.2 301C728.3 301 685.7 301 642.8 301C600 301 557 301 514.2 301C471.3 301 428.7 301 385.8 301C343 301 300 301 257.2 301C214.3 301 171.7 301 128.8 301C86 301 43 301 21.5 301L0 301Z" fill="#f60c5e"></path><path d="M0 230L21.5 225.3C43 220.7 86 211.3 128.8 208.7C171.7 206 214.3 210 257.2 211.5C300 213 343 212 385.8 214.7C428.7 217.3 471.3 223.7 514.2 222.8C557 222 600 214 642.8 203.8C685.7 193.7 728.3 181.3 771.2 184.3C814 187.3 857 205.7 878.5 214.8L900 224L900 301L878.5 301C857 301 814 301 771.2 301C728.3 301 685.7 301 642.8 301C600 301 557 301 514.2 301C471.3 301 428.7 301 385.8 301C343 301 300 301 257.2 301C214.3 301 171.7 301 128.8 301C86 301 43 301 21.5 301L0 301Z" fill="#ff5b38"></path><path d="M0 231L21.5 231.3C43 231.7 86 232.3 128.8 235.2C171.7 238 214.3 243 257.2 241.3C300 239.7 343 231.3 385.8 232.2C428.7 233 471.3 243 514.2 241.5C557 240 600 227 642.8 232.5C685.7 238 728.3 262 771.2 265.7C814 269.3 857 252.7 878.5 244.3L900 236L900 301L878.5 301C857 301 814 301 771.2 301C728.3 301 685.7 301 642.8 301C600 301 557 301 514.2 301C471.3 301 428.7 301 385.8 301C343 301 300 301 257.2 301C214.3 301 171.7 301 128.8 301C86 301 43 301 21.5 301L0 301Z" fill="#ff9300"></path></svg>